<svg width="100%" height="100%" viewBox="0 0 48 48" fill="none" xmlns="http://www.w3.org/2000/svg">
<path fill-rule="evenodd" clip-rule="evenodd" d="M40 9C40 8.44772 39.5523 8 39 8H9C8.44772 8 8 8.44772 8 9V13.5858C8 13.851 8.10536 14.1054 8.29289 14.2929L17.7071 23.7071C17.8946 23.8946 18 24.149 18 24.4142V39.3063C18 39.6476 18.3343 39.8886 18.6581 39.7806L29.6581 36.114C29.8623 36.0459 30 35.8548 30 35.6396V24.4142C30 24.149 30.1053 23.8947 30.2929 23.7071L39.7071 14.2929C39.8946 14.1054 40 13.851 40 13.5858V9Z" fill="white"/>
<path d="M18.6581 39.7806L18.4684 39.2114L18.6581 39.7806ZM29.6581 36.114L29.8478 36.6832L29.8478 36.6832L29.6581 36.114ZM39.7071 14.2929L40.1314 14.7172L39.7071 14.2929ZM8.29289 14.2929L8.71716 13.8686L8.29289 14.2929ZM9 8.6H39V7.4H9V8.6ZM8.6 13.5858V9H7.4V13.5858H8.6ZM18.1314 23.2828L8.71716 13.8686L7.86863 14.7172L17.2828 24.1314L18.1314 23.2828ZM17.4 24.4142V39.3063H18.6V24.4142H17.4ZM17.4 39.3063C17.4 40.0571 18.1356 40.5873 18.8478 40.3498L18.4684 39.2114C18.5331 39.1898 18.6 39.238 18.6 39.3063H17.4ZM18.8478 40.3498L29.8478 36.6832L29.4684 35.5448L18.4684 39.2114L18.8478 40.3498ZM29.8478 36.6832C30.297 36.5335 30.6 36.1131 30.6 35.6396H29.4C29.4 35.5966 29.4275 35.5584 29.4684 35.5448L29.8478 36.6832ZM30.6 35.6396V24.4142H29.4V35.6396H30.6ZM39.2828 13.8686L29.8686 23.2829L30.7171 24.1314L40.1314 14.7172L39.2828 13.8686ZM39.4 9V13.5858H40.6V9H39.4ZM40.1314 14.7172C40.4314 14.4171 40.6 14.0101 40.6 13.5858H39.4C39.4 13.6919 39.3579 13.7936 39.2828 13.8686L40.1314 14.7172ZM30.6 24.4142C30.6 24.3081 30.6421 24.2064 30.7171 24.1314L29.8686 23.2829C29.5686 23.5829 29.4 23.9899 29.4 24.4142H30.6ZM17.2828 24.1314C17.3578 24.2064 17.4 24.3081 17.4 24.4142H18.6C18.6 23.9899 18.4314 23.5829 18.1314 23.2828L17.2828 24.1314ZM7.4 13.5858C7.4 14.0101 7.56857 14.4171 7.86863 14.7172L8.71716 13.8686C8.64214 13.7936 8.6 13.6919 8.6 13.5858H7.4ZM39 8.6C39.2209 8.6 39.4 8.77909 39.4 9H40.6C40.6 8.11634 39.8837 7.4 39 7.4V8.6ZM9 7.4C8.11634 7.4 7.4 8.11634 7.4 9H8.6C8.6 8.77909 8.77909 8.6 9 8.6V7.4Z" fill="white"/>
</svg>
