<svg width="100%" height="100%" viewBox="0 0 36 36" fill="none" xmlns="http://www.w3.org/2000/svg">
<path fill-rule="evenodd" clip-rule="evenodd" d="M29.8333 8.74988C30.5252 7.11885 28.8808 5.47439 27.2497 6.16635L7.20106 14.6718C5.52713 15.382 5.62638 17.7872 7.35313 18.357L14.372 20.6733C14.8234 20.8222 15.1774 21.1763 15.3264 21.6276L17.6426 28.6465C18.2124 30.3732 20.6176 30.4725 21.3278 28.7986L29.8333 8.74988ZM26.0781 3.40461C30.1923 1.65916 34.3405 5.80726 32.595 9.92153L24.0895 29.9702C22.2982 34.1927 16.2311 33.9423 14.7937 29.5866L12.7143 23.2853L6.41299 21.2059C2.05729 19.7685 1.80694 13.7015 6.02941 11.9101L26.0781 3.40461Z" fill="#C9082A"/>
</svg>
