<svg width="100%" height="100%" viewBox="0 0 24 24" fill="none" xmlns="http://www.w3.org/2000/svg">
<path d="M10.3075 7.22035C10.9496 5.61967 11.2706 4.81932 11.7922 4.7084C11.9293 4.67923 12.0711 4.67923 12.2082 4.7084C12.7298 4.81932 13.0508 5.61967 13.6929 7.22035C14.058 8.13063 14.2406 8.58577 14.5822 8.89534C14.678 8.98217 14.782 9.0595 14.8928 9.12625C15.2876 9.36423 15.7805 9.40837 16.7663 9.49665C18.4351 9.6461 19.2695 9.72083 19.5243 10.1966C19.577 10.2951 19.6129 10.4018 19.6304 10.5122C19.7149 11.0452 19.1015 11.6033 17.8747 12.7194L17.534 13.0293C16.9605 13.5511 16.6737 13.812 16.5078 14.1376C16.4083 14.333 16.3416 14.5433 16.3103 14.7603C16.2582 15.122 16.3422 15.5004 16.5102 16.2574L16.5702 16.5279C16.8714 17.8854 17.022 18.5642 16.834 18.8978C16.6651 19.1975 16.3541 19.3894 16.0105 19.4058C15.6279 19.4241 15.089 18.9849 14.011 18.1065C13.3008 17.5277 12.9457 17.2384 12.5515 17.1254C12.1912 17.0221 11.8092 17.0221 11.4489 17.1254C11.0547 17.2384 10.6996 17.5277 9.98941 18.1065C8.91144 18.9849 8.37245 19.4241 7.98993 19.4058C7.64633 19.3894 7.33528 19.1975 7.16642 18.8978C6.97842 18.5642 7.12902 17.8854 7.43022 16.5279L7.49023 16.2574C7.65818 15.5004 7.74216 15.122 7.69004 14.7603C7.65878 14.5433 7.59207 14.333 7.49257 14.1376C7.32669 13.812 7.03992 13.5511 6.46637 13.0293L6.1257 12.7194C4.89891 11.6033 4.28552 11.0452 4.36999 10.5122C4.38749 10.4018 4.42337 10.2951 4.47614 10.1966C4.73094 9.72083 5.56532 9.6461 7.23408 9.49665C8.21986 9.40837 8.71276 9.36423 9.1076 9.12625C9.21834 9.0595 9.32236 8.98217 9.41818 8.89534C9.75979 8.58577 9.94235 8.13063 10.3075 7.22035Z" fill="white" stroke="white" stroke-width="2"/>
</svg>
